<?xml version="1.0" encoding="UTF-8" standalone="no"?>
<!-- Created with Inkscape (http://www.inkscape.org/) -->

<svg
   xmlns:dc="http://purl.org/dc/elements/1.1/"
   xmlns:cc="http://creativecommons.org/ns#"
   xmlns:rdf="http://www.w3.org/1999/02/22-rdf-syntax-ns#"
   xmlns:svg="http://www.w3.org/2000/svg"
   xmlns="http://www.w3.org/2000/svg"
   xmlns:sodipodi="http://sodipodi.sourceforge.net/DTD/sodipodi-0.dtd"
   xmlns:inkscape="http://www.inkscape.org/namespaces/inkscape"
   width="120"
   height="120"
   id="svg2"
   version="1.1"
   inkscape:version="0.48.2 r9819"
   sodipodi:docname="vector.svg">
  <defs
     id="defs4" />
  <sodipodi:namedview
     id="base"
     pagecolor="#ffffff"
     bordercolor="#666666"
     borderopacity="1.0"
     inkscape:pageopacity="0.0"
     inkscape:pageshadow="2"
     inkscape:zoom="1.4"
     inkscape:cx="3.4384304"
     inkscape:cy="100.77629"
     inkscape:document-units="px"
     inkscape:current-layer="layer1"
     showgrid="false"
     inkscape:window-width="1920"
     inkscape:window-height="1018"
     inkscape:window-x="1016"
     inkscape:window-y="-8"
     inkscape:window-maximized="1"
     fit-margin-top="0"
     fit-margin-left="0"
     fit-margin-right="0"
     fit-margin-bottom="0" />
  <metadata
     id="metadata7">
    <rdf:RDF>
      <cc:Work
         rdf:about="">
        <dc:format>image/svg+xml</dc:format>
        <dc:type
           rdf:resource="http://purl.org/dc/dcmitype/StillImage" />
        <dc:title></dc:title>
      </cc:Work>
    </rdf:RDF>
  </metadata>
  <g
     inkscape:label="Layer 1"
     inkscape:groupmode="layer"
     id="layer1"
     transform="translate(-211.96787,-190.62259)">
    <flowRoot
       xml:space="preserve"
       id="flowRoot2998"
       style="font-size:40px;font-style:normal;font-variant:normal;font-weight:600;font-stretch:normal;line-height:125%;letter-spacing:0px;word-spacing:0px;fill:#000000;fill-opacity:1;stroke:none;font-family:helvetica;-inkscape-font-specification:helvetica"><flowRegion
         id="flowRegion3000"><rect
           id="rect3002"
           width="293.44931"
           height="76.771591"
           x="225.76909"
           y="327.07266"
           style="font-family:helvetica;-inkscape-font-specification:helvetica" /></flowRegion><flowPara
         id="flowPara3004" /></flowRoot>    <text
       xml:space="preserve"
       style="font-size:40px;font-style:normal;font-variant:normal;font-weight:600;font-stretch:normal;line-height:125%;letter-spacing:0px;word-spacing:0px;fill:#000000;fill-opacity:1;stroke:none;font-family:Times New Roman;-inkscape-font-specification:Times New Roman"
       x="536.89606"
       y="351.31631"
       id="text3018"
       sodipodi:linespacing="125%"><tspan
         sodipodi:role="line"
         id="tspan3020"
         x="536.89606"
         y="351.31631" /></text>
    <g
       id="g3063"
       transform="matrix(0.90588413,0,0,0.90588413,-115.94155,33.024455)"
       style="fill:#ffffff">
      <g
         transform="translate(381.80643,-249.23284)"
         style="font-size:56px;font-style:normal;font-variant:normal;font-weight:600;font-stretch:normal;line-height:125%;letter-spacing:0px;word-spacing:0px;fill:#ffffff;fill-opacity:1;stroke:none;font-family:Museo 300;-inkscape-font-specification:Museo 300"
         id="g3098">
        <path
           d="m 28.897014,453.10396 c 0.13533,5.9056 2.076636,10.7822 5.823925,14.62981 3.747272,3.84762 8.48854,5.84026 14.223817,5.97792 5.710731,-0.13766 10.444998,-2.1303 14.202815,-5.97792 3.757745,-3.84761 5.706052,-8.72421 5.844926,-14.62981 -0.138873,-5.78657 -2.08718,-10.55117 -5.844925,-14.29382 -3.757818,-3.74258 -8.492085,-5.67922 -14.202816,-5.80992 -5.735276,0.1307 -10.476544,2.06734 -14.223817,5.80992 -3.74729,3.74265 -5.688596,8.50725 -5.823925,14.29382 z m 4.087947,0 c 0.111992,-4.75058 1.665971,-8.64719 4.66194,-11.68985 2.995948,-3.04259 6.761895,-4.61524 11.297855,-4.71794 4.511413,0.1027 8.270361,1.67535 11.276853,4.71794 3.006425,3.04266 4.567404,6.93927 4.682941,11.68985 -0.115537,4.86962 -1.676515,8.87823 -4.68294,12.02585 -3.006492,3.14763 -6.765439,4.77627 -11.276854,4.88593 -4.53596,-0.10966 -8.301908,-1.7383 -11.297856,-4.88594 -2.99597,-3.14761 -4.549948,-7.15622 -4.661939,-12.02584 z"
           id="path3100"
           inkscape:connector-curvature="0"
           style="fill:#ffffff" />
      </g>
      <g
         transform="translate(381.80643,-249.23284)"
         style="font-size:56px;font-style:normal;font-variant:normal;font-weight:600;font-stretch:normal;line-height:125%;letter-spacing:0px;word-spacing:0px;fill:#ffffff;fill-opacity:1;stroke:none;font-family:Museo 300;-inkscape-font-specification:Museo 300"
         id="g3102">
        <path
           d="m 47.219607,512.43567 3.919949,0 0,-35.89554 9.687876,0 c 0.418797,-0.005 0.729126,0.0887 0.930986,0.28 0.201801,0.19136 0.302134,0.50869 0.300998,0.95199 l 0,2.63196 3.639953,0 0,-4.14395 c 0.01747,-1.18644 -0.213532,-2.01943 -0.692992,-2.49896 -0.479526,-0.47946 -1.312514,-0.71046 -2.498967,-0.69299 l -26.655657,0 c -1.186488,-0.0175 -2.019477,0.21353 -2.498969,0.69299 -0.479495,0.47953 -0.710491,1.31252 -0.69299,2.49896 l 0,4.14395 3.583954,0 0,-2.63196 c 0.0023,-0.4433 0.109662,-0.76063 0.321997,-0.95199 0.212325,-0.1913 0.515654,-0.28463 0.909987,-0.28 l 9.743875,0 z"
           id="path3104"
           inkscape:connector-curvature="0"
           style="fill:#ffffff" />
      </g>
      <g
         transform="matrix(0,-1,1,0,381.80643,-249.23284)"
         style="font-size:56px;font-style:normal;font-variant:normal;font-weight:600;font-stretch:normal;line-height:125%;letter-spacing:0px;word-spacing:0px;fill:#ffffff;fill-opacity:1;stroke:none;font-family:Museo 300;-inkscape-font-specification:Museo 300"
         id="g3106">
        <path
           d="m -536.98713,61.778676 25.31168,-11.311855 0,-2.799964 -25.31168,-11.311854 0,3.751952 20.55174,8.903885 0,0.111998 -20.55174,8.903886 z"
           id="path3108"
           inkscape:connector-curvature="0"
           style="fill:#ffffff" />
      </g>
      <g
         transform="matrix(1.4495509,0,0,0.68986884,381.80643,-249.23284)"
         style="font-size:81.17485046000000200px;font-style:normal;font-variant:normal;font-weight:600;font-stretch:normal;line-height:125%;letter-spacing:0px;word-spacing:0px;fill:#ffffff;fill-opacity:1;stroke:none;font-family:Museo 300;-inkscape-font-specification:Museo 300"
         id="g3110">
        <path
           d="m 12.430459,788.19379 0,4.70808 41.885683,0 0,-4.70808 z"
           id="path3112"
           inkscape:connector-curvature="0"
           style="fill:#ffffff" />
      </g>
    </g>
  </g>
</svg>
